<?xml version="1.0" encoding="utf-8"?>
<!-- Generator: Adobe Illustrator 19.0.0, SVG Export Plug-In . SVG Version: 6.00 Build 0)  -->
<svg version="1.1" id="Layer_1" xmlns="http://www.w3.org/2000/svg" xmlns:xlink="http://www.w3.org/1999/xlink" x="0px" y="0px"
	 viewBox="0 0 292 26" style="enable-background:new 0 0 292 26;" xml:space="preserve">
<style type="text/css">
	.st0{fill:#E2D62A;}
	.st1{fill:#E5E5E5;}
</style>
<g>
	<g>
		<path class="st0" d="M27.9,24.5h-9.5l-4.1-9h-2.7v9H3V1.1h14.6c3.2,0,5.7,0.6,7.5,1.9c1.8,1.3,2.7,2.9,2.7,5c0,1.4-0.3,2.5-1,3.6
			c-0.7,1-2,1.9-4,2.7L27.9,24.5z M11.6,10.5h3.7c1.1,0,1.9-0.2,2.6-0.6c0.7-0.4,1-0.9,1-1.7c0-1.5-1.1-2.2-3.3-2.2h-4V10.5z"/>
	</g>
	<g>
		<path class="st0" d="M41.8,24.6c-4,0-7.2-1.1-9.7-3.2c-2.5-2.2-3.7-5-3.7-8.6c0-3.5,1.2-6.3,3.6-8.6c2.4-2.2,5.7-3.4,9.9-3.4
			c3.9,0,7.1,1.1,9.6,3.2c2.5,2.1,3.7,5,3.7,8.5c0,3.7-1.2,6.6-3.7,8.8C49,23.5,45.8,24.6,41.8,24.6z M41.8,19.4
			c1.5,0,2.5-0.5,3.2-1.6c0.6-1,1-3,1-5.7c0-4-1.3-6-3.9-6c-2.8,0-4.3,2.3-4.3,6.9C37.7,17.2,39.1,19.4,41.8,19.4z"/>
	</g>
	<g>
		<path class="st0" d="M73.7,15.5l8.1,0.4c-0.4,2.8-1.7,5-3.9,6.5c-2.2,1.5-5,2.3-8.3,2.3c-3.9,0-7.1-1-9.5-3.1
			c-2.4-2.1-3.6-4.9-3.6-8.6c0-3.6,1.1-6.5,3.4-8.8c2.3-2.2,5.5-3.3,9.6-3.3c3.8,0,6.8,0.8,8.8,2.5c2.1,1.7,3.2,3.9,3.5,6.7
			l-8.3,0.4c0-1.5-0.4-2.7-1.1-3.3s-1.6-1-2.6-1c-2.8,0-4.2,2.2-4.2,6.7c0,2.5,0.4,4.2,1.1,5.1c0.7,0.9,1.8,1.4,3.1,1.4
			C72.1,19.3,73.4,18,73.7,15.5z"/>
	</g>
	<g>
		<path class="st0" d="M108.5,24.3h-9l-4.7-8.7L92,18.9v5.3h-7.8V1.2H92v9.5l7.4-9.5h7.4L100,9.6L108.5,24.3z"/>
	</g>
	<g>
		<path class="st0" d="M130.5,1.2l-9,13.4v9.9H113v-9.9l-9.7-13.4h9.6l5,7.7l4.8-7.7H130.5z"/>
	</g>
	<g>
		<path class="st1" d="M133.6,1.4h8.5c5.1,0,8.7,2.6,8.7,7.1v0.1c0,4.9-4.2,7.4-9.1,7.4h-6.3v8.7h-1.7V1.4z M141.8,14.5
			c4.3,0,7.3-2.3,7.3-5.7V8.7C149,5,146.2,3,142,3h-6.6v11.4H141.8z"/>
		<path class="st1" d="M155.9,1.4h9.8c2.9,0,5.2,0.9,6.6,2.3c1.1,1.1,1.8,2.7,1.8,4.3v0.1c0,3.9-2.9,6.1-6.8,6.7l7.7,10h-2.2
			l-7.4-9.7h-7.6v9.7h-1.7V1.4z M165.5,13.5c3.9,0,6.8-2,6.8-5.3V8.1c0-3.1-2.5-5.1-6.7-5.1h-8v10.5H165.5z"/>
		<path class="st1" d="M179,13.2L179,13.2C179,6.7,183.7,1,190.8,1c7.1,0,11.7,5.6,11.7,12v0.1c0,6.4-4.7,12.1-11.8,12.1
			C183.6,25.2,179,19.5,179,13.2z M200.7,13.2L200.7,13.2c0-5.8-4.2-10.6-10-10.6c-5.8,0-9.9,4.7-9.9,10.4v0.1
			c0,5.8,4.2,10.5,10,10.5S200.7,18.9,200.7,13.2z"/>
		<path class="st1" d="M205.1,20.7l1.4-0.9c1.4,2.4,3,3.7,5.7,3.7c2.9,0,5.1-2.2,5.1-6.2V1.4h1.7v15.7c0,2.7-0.8,4.8-2.1,6.1
			c-1.2,1.2-2.9,1.9-4.8,1.9C208.7,25.1,206.6,23.3,205.1,20.7z"/>
		<path class="st1" d="M225.7,1.4h16.6V3h-14.9v9.2h13.4v1.6h-13.4v9.4h15v1.6h-16.8V1.4z"/>
		<path class="st1" d="M247,13.2L247,13.2C247,6.5,251.9,1,258.7,1c4.2,0,6.7,1.5,9.1,3.7L266.5,6c-2-2-4.4-3.4-7.9-3.4
			c-5.6,0-9.8,4.6-9.8,10.4v0.1c0,5.9,4.3,10.5,9.9,10.5c3.4,0,5.7-1.3,8-3.6l1.2,1.1c-2.5,2.4-5.1,4.1-9.3,4.1
			C251.9,25.2,247,19.9,247,13.2z"/>
		<path class="st1" d="M279.1,3H271V1.4h18V3h-8.1v21.7h-1.7V3z"/>
	</g>
</g>
</svg>
